# xmcd
#
# Track frame offsets:
#	150
#	72025
#	132628
#	188556
#
# Disc length: 3312 seconds
#
# Revision: 1779478964
# Processed by: cddbd v1.5.2PL0 Copyright (c) Steve Scherf et al.
# Submitted via: EZCDAudioConverter 8.0.2.1
#
DISCID=330cee04
DTITLE=Various Artist - Tình Khúc 2001 Remix
DYEAR=2001
DGENRE=Miscellaneous
TTITLE0=Part 1. Tình Khúc 2001 Remix
TTITLE1=Part 2. Tình Khúc 2001 Remix
TTITLE2=Part 3. Tình Khúc 2001 Remix
TTITLE3=Part 4. Tình Khúc 2001 Remix
EXTD=
EXTT0=
EXTT1=
EXTT2=
EXTT3=
PLAYORDER=
